<svg width="491" height="517" viewBox="0 0 491 517" fill="none" xmlns="http://www.w3.org/2000/svg">
<g style="mix-blend-mode:difference">
<path d="M187.397 260.908L170.851 244.362C166.714 240.225 166.396 237.87 171.296 232.97C176.26 228.006 178.933 228.134 183.388 232.588L199.552 248.753L211.517 236.789L194.97 220.242C190.834 216.106 190.516 213.751 195.416 208.851C200.38 203.887 203.053 204.014 207.507 208.469L223.672 224.633L235.636 212.669L215.08 192.114C208.144 185.177 199.043 183.84 190.834 192.05C182.497 200.387 184.47 208.469 189.115 214.515L188.479 215.151C182.051 209.996 173.842 209.042 166.269 216.615C158.187 224.697 160.287 232.652 164.932 238.698L164.296 239.334L154.559 229.597L143.359 240.798L175.433 272.872L187.397 260.908ZM235.569 212.736L225.323 202.49L231.115 196.699L248.106 200.199L262.234 186.071L234.551 180.789L230.351 153.805L216.223 167.933L220.296 186.134L214.632 191.798L192.931 170.097L180.967 182.061L223.605 224.7L235.569 212.736Z" fill="#C2C2C2"/>
</g>
<g style="mix-blend-mode:difference">
<path d="M274.641 174.152L258.095 157.605C253.958 153.469 253.64 151.114 258.54 146.214C263.504 141.25 266.177 141.377 270.632 145.832L286.796 161.996L298.76 150.032L282.214 133.486C278.077 129.349 277.759 126.995 282.659 122.094C287.623 117.131 290.296 117.258 294.751 121.713L310.915 137.877L322.88 125.913L302.324 105.357C295.387 98.4205 286.287 97.084 278.077 105.294C269.741 113.63 271.713 121.713 276.359 127.758L275.723 128.395C269.295 123.24 261.086 122.285 253.512 129.858C245.43 137.941 247.53 145.896 252.176 151.941L251.54 152.578L241.803 142.841L230.602 154.041L262.677 186.116L274.641 174.152ZM322.813 125.979L312.567 115.733L318.358 109.942L335.35 113.442L349.478 99.3144L321.795 94.0323L317.595 67.0491L303.467 81.1771L307.54 99.378L301.876 105.042L280.174 83.3409L268.21 95.3051L310.849 137.944L322.813 125.979Z" fill="#C2C2C2"/>
</g>
<g style="mix-blend-mode:difference">
<path d="M251.641 368.908L235.095 352.362C230.958 348.225 230.64 345.87 235.54 340.97C240.504 336.006 243.177 336.134 247.632 340.588L263.796 356.753L275.76 344.789L259.214 328.242C255.077 324.106 254.759 321.751 259.659 316.851C264.623 311.887 267.296 312.014 271.751 316.469L287.915 332.633L299.88 320.669L279.324 300.114C272.387 293.177 263.287 291.84 255.077 300.05C246.741 308.387 248.713 316.469 253.359 322.515L252.723 323.151C246.295 317.996 238.086 317.042 230.512 324.615C222.43 332.697 224.53 340.652 229.176 346.698L228.54 347.334L218.803 337.597L207.602 348.798L239.677 380.872L251.641 368.908ZM299.813 320.736L289.567 310.49L295.358 304.699L312.35 308.199L326.478 294.071L298.795 288.789L294.595 261.805L280.467 275.933L284.54 294.134L278.876 299.798L257.174 278.097L245.21 290.061L287.849 332.7L299.813 320.736Z" fill="#C2C2C2"/>
</g>
<g style="mix-blend-mode:difference">
<path d="M338.884 282.152L322.338 265.605C318.202 261.469 317.883 259.114 322.784 254.214C327.748 249.25 330.42 249.377 334.875 253.832L351.04 269.996L363.004 258.032L346.458 241.486C342.321 237.349 342.003 234.995 346.903 230.094C351.867 225.131 354.54 225.258 358.995 229.713L375.159 245.877L387.123 233.913L366.568 213.357C359.631 206.42 350.531 205.084 342.321 213.294C333.984 221.63 335.957 229.713 340.603 235.758L339.966 236.395C333.539 231.24 325.329 230.285 317.756 237.858C309.674 245.941 311.774 253.896 316.42 259.941L315.783 260.578L306.046 250.841L294.846 262.041L326.92 294.116L338.884 282.152ZM387.057 233.979L376.811 223.733L382.602 217.942L399.594 221.442L413.722 207.314L386.038 202.032L381.838 175.049L367.71 189.177L371.783 207.378L366.119 213.042L344.418 191.341L332.454 203.305L375.092 245.944L387.057 233.979Z" fill="#C2C2C2"/>
</g>
<g style="mix-blend-mode:difference">
<path d="M269.641 264.908L253.095 248.362C248.958 244.225 248.64 241.87 253.54 236.97C258.504 232.006 261.177 232.134 265.632 236.588L281.796 252.753L293.76 240.789L277.214 224.242C273.077 220.106 272.759 217.751 277.659 212.851C282.623 207.887 285.296 208.014 289.751 212.469L305.915 228.633L317.88 216.669L297.324 196.114C290.387 189.177 281.287 187.84 273.077 196.05C264.741 204.387 266.713 212.469 271.359 218.515L270.723 219.151C264.295 213.996 256.086 213.042 248.512 220.615C240.43 228.697 242.53 236.652 247.176 242.698L246.54 243.334L236.803 233.597L225.602 244.798L257.677 276.872L269.641 264.908ZM317.813 216.736L307.567 206.49L313.358 200.699L330.35 204.199L344.478 190.071L316.795 184.789L312.595 157.805L298.467 171.933L302.54 190.134L296.876 195.798L275.174 174.097L263.21 186.061L305.849 228.7L317.813 216.736Z" fill="#C2C2C2"/>
</g>
<g style="mix-blend-mode:difference">
<path d="M356.884 178.152L340.338 161.605C336.202 157.469 335.883 155.114 340.784 150.214C345.748 145.25 348.42 145.377 352.875 149.832L369.04 165.996L381.004 154.032L364.458 137.486C360.321 133.349 360.003 130.995 364.903 126.094C369.867 121.131 372.54 121.258 376.995 125.713L393.159 141.877L405.123 129.913L384.568 109.357C377.631 102.42 368.531 101.084 360.321 109.294C351.984 117.63 353.957 125.713 358.603 131.758L357.966 132.395C351.539 127.24 343.329 126.285 335.756 133.858C327.674 141.941 329.774 149.896 334.42 155.941L333.783 156.578L324.046 146.841L312.846 158.041L344.92 190.116L356.884 178.152ZM405.057 129.979L394.811 119.733L400.602 113.942L417.594 117.442L431.722 103.314L404.038 98.0323L399.838 71.0491L385.71 85.1771L389.783 103.378L384.119 109.042L362.418 87.3409L350.454 99.3051L393.092 141.944L405.057 129.979Z" fill="#C2C2C2"/>
</g>
<rect x="15" y="393.037" width="174" height="6" rx="3" transform="rotate(-45 15 393.037)" fill="#C2C2C2"/>
<rect x="86" y="498.037" width="174" height="6" rx="3" transform="rotate(-45 86 498.037)" fill="#C2C2C2"/>
<rect x="102" y="393.037" width="174" height="6" rx="3" transform="rotate(-45 102 393.037)" fill="#C2C2C2"/>
<circle cx="7.5" cy="404.5" r="7.5" fill="#C2C2C2"/>
<circle cx="78.5" cy="509.5" r="7.5" fill="#C2C2C2"/>
<circle cx="94.5" cy="404.5" r="7.5" fill="#C2C2C2"/>
</svg>
