<svg width="175" height="175" viewBox="0 0 175 175" fill="none" xmlns="http://www.w3.org/2000/svg">
<rect width="175" height="175" rx="57" fill="white"/>
<path d="M44.7124 116H27.7924V70.64H43.6324V84.41H44.5324C45.5224 76.85 49.6624 69.74 61.0924 69.74C71.8024 69.74 76.9324 76.22 77.8324 84.41H78.7324C79.7224 76.85 84.0424 69.74 95.8324 69.74C107.442 69.74 112.932 77.12 112.932 86.93V116H96.0124V93.14C96.0124 86.84 94.2124 84.86 87.1924 84.86C80.2624 84.86 78.8224 86.75 78.8224 92.6V116H61.9024V93.14C61.9024 86.84 60.1024 84.86 53.0824 84.86C46.1524 84.86 44.7124 86.75 44.7124 92.6V116ZM112.838 116H95.9182V55.7H112.838V86.39H120.848L130.838 70.64H150.818L134.708 92.69L150.548 116H130.568L121.028 101.51H112.838V116Z" fill="#121212"/>
</svg>
