<svg width="175" height="175" viewBox="0 0 175 175" fill="none" xmlns="http://www.w3.org/2000/svg">
<rect width="175" height="175" rx="57" fill="white"/>
<path d="M49.8314 51.269C49.8314 50.581 50.0894 50.022 50.6054 49.592C51.2074 49.076 51.8524 48.818 52.5404 48.818C53.3144 48.818 53.9164 49.076 54.3464 49.592C54.8624 50.022 55.1204 50.581 55.1204 51.269V131.894C55.1204 133.872 54.4324 135.592 53.0564 137.054C51.6804 138.516 49.8744 139.247 47.6384 139.247C45.4884 139.247 43.7254 138.516 42.3494 137.054C40.9734 135.592 40.2854 133.872 40.2854 131.894V111.512C40.2854 110.91 40.5004 110.308 40.9304 109.706C41.3604 109.104 42.0054 108.803 42.8654 108.803C43.7254 108.803 44.4134 109.061 44.9294 109.577C45.3594 110.093 45.5744 110.738 45.5744 111.512V131.894C45.5744 133.356 46.2624 134.087 47.6384 134.087C49.1004 134.087 49.8314 133.356 49.8314 131.894V51.269ZM52.5404 40.82C53.4004 40.82 54.0454 41.121 54.4754 41.723C54.9054 42.239 55.1204 42.798 55.1204 43.4C55.1204 44.088 54.8624 44.69 54.3464 45.206C53.9164 45.722 53.3144 45.98 52.5404 45.98C51.7664 45.98 51.1214 45.765 50.6054 45.335C50.0894 44.905 49.8314 44.26 49.8314 43.4C49.8314 42.712 50.0464 42.11 50.4764 41.594C50.9064 41.078 51.5944 40.82 52.5404 40.82ZM62.8704 48.818C63.5584 48.818 64.1604 49.076 64.6764 49.592C65.1924 50.022 65.4504 50.581 65.4504 51.269V87.647C65.4504 89.109 66.1384 89.84 67.5144 89.84C68.9764 89.84 69.7074 89.109 69.7074 87.647V51.269C69.7074 50.581 69.9654 50.022 70.4815 49.592C71.0835 49.076 71.7285 48.818 72.4165 48.818C73.1904 48.818 73.7924 49.076 74.2225 49.592C74.7384 50.022 74.9964 50.581 74.9964 51.269V87.647C74.9964 89.625 74.3084 91.345 72.9325 92.807C71.5565 94.269 69.7504 95 67.5144 95C65.3644 95 63.6014 94.269 62.2254 92.807C60.8494 91.345 60.1614 89.625 60.1614 87.647V51.269C60.1614 50.581 60.4194 50.022 60.9354 49.592C61.5374 49.076 62.1824 48.818 62.8704 48.818ZM89.4858 92.42V56.042C89.4858 54.58 88.7548 53.849 87.2928 53.849C85.9168 53.849 85.2288 54.58 85.2288 56.042V92.42C85.2288 93.022 84.9708 93.624 84.4548 94.226C84.0248 94.742 83.4228 95 82.6488 95C80.8428 95 79.9398 94.14 79.9398 92.42V56.042C79.9398 54.064 80.6278 52.387 82.0038 51.011C83.3798 49.549 85.1428 48.818 87.2928 48.818C89.1848 48.818 90.8188 49.42 92.1948 50.624C93.5708 49.42 95.1618 48.818 96.9678 48.818C99.1178 48.818 100.881 49.549 102.257 51.011C103.633 52.387 104.321 54.064 104.321 56.042V92.42C104.321 93.022 104.106 93.624 103.676 94.226C103.246 94.742 102.601 95 101.741 95C100.021 95 99.1608 94.14 99.1608 92.42V56.042C99.1608 54.58 98.4298 53.849 96.9678 53.849C95.5058 53.849 94.7748 54.58 94.7748 56.042V92.42C94.7748 93.022 94.5598 93.624 94.1298 94.226C93.6998 94.742 93.0548 95 92.1948 95C90.3888 95 89.4858 94.14 89.4858 92.42ZM116.519 134.087C117.981 134.087 118.712 133.356 118.712 131.894V94.613C118.11 94.871 117.379 95 116.519 95C114.369 95 112.606 94.269 111.23 92.807C109.854 91.345 109.166 89.625 109.166 87.647V51.269C109.166 50.581 109.424 50.022 109.94 49.592C110.542 49.076 111.187 48.818 111.875 48.818C112.563 48.818 113.165 49.076 113.681 49.592C114.197 50.022 114.455 50.581 114.455 51.269V87.647C114.455 89.109 115.143 89.84 116.519 89.84C117.981 89.84 118.712 89.109 118.712 87.647V51.269C118.712 50.581 118.97 50.022 119.486 49.592C120.088 49.076 120.733 48.818 121.421 48.818C122.195 48.818 122.797 49.076 123.227 49.592C123.743 50.022 124.001 50.581 124.001 51.269V131.894C124.001 133.872 123.313 135.592 121.937 137.054C120.561 138.516 118.755 139.247 116.519 139.247C114.369 139.247 112.606 138.516 111.23 137.054C109.854 135.592 109.166 133.872 109.166 131.894V111.512C109.166 110.738 109.381 110.093 109.811 109.577C110.241 109.061 110.929 108.803 111.875 108.803C112.649 108.803 113.251 109.104 113.681 109.706C114.197 110.308 114.455 110.91 114.455 111.512V131.894C114.455 133.356 115.143 134.087 116.519 134.087Z" fill="#121212"/>
</svg>
