<svg width="175" height="175" viewBox="0 0 175 175" fill="none" xmlns="http://www.w3.org/2000/svg">
<rect width="175" height="175" rx="57" fill="#DEDEDE"/>
<g style="mix-blend-mode:difference">
<path d="M44.7124 116V92.6C44.7124 86.75 46.1524 84.86 53.0824 84.86C60.1024 84.86 61.9024 86.84 61.9024 93.14V116H78.8224V92.6C78.8224 86.75 80.2624 84.86 87.1924 84.86C94.2124 84.86 96.0124 86.84 96.0124 93.14V116H112.932V86.93C112.932 77.12 107.442 69.74 95.8324 69.74C84.0424 69.74 79.7224 76.85 78.7324 84.41H77.8324C76.9324 76.22 71.8024 69.74 61.0924 69.74C49.6624 69.74 45.5224 76.85 44.5324 84.41H43.6324V70.64H27.7924V116H44.7124ZM112.838 116V101.51H121.028L130.568 116H150.548L134.708 92.69L150.818 70.64H130.838L120.848 86.39H112.838V55.7H95.9182V116H112.838Z" fill="#949494"/>
</g>
</svg>
