<svg width="175" height="175" viewBox="0 0 175 175" fill="none" xmlns="http://www.w3.org/2000/svg">
<rect width="175" height="175" rx="57" fill="white"/>
<path d="M57.2381 52.521C55.0701 46.3271 48.302 43.0683 42.1228 45.2422C35.9435 47.4162 32.6924 54.1996 34.8613 60.3934L56.6854 122.72C58.8533 128.914 65.6208 132.173 71.8006 129.999C77.9804 127.825 81.2315 121.042 79.062 114.848L57.2381 52.521Z" fill="#121212"/>
<path d="M98.0573 52.6428C95.8878 46.4489 89.1203 43.1901 82.9421 45.364C76.7623 47.5379 73.5111 54.3213 75.6807 60.5152L97.5046 122.842C99.6725 129.036 106.44 132.295 112.62 130.121C118.798 127.947 122.049 121.164 119.881 114.97L98.0573 52.6428Z" fill="#121212"/>
<path d="M116.722 61.8749L127.494 84.5333L138.267 61.8749C139.131 60.0525 139.521 58.0403 139.401 56.0259C139.28 54.0115 138.653 52.0604 137.577 50.3543C136.502 48.6483 135.014 47.2428 133.251 46.2688C131.488 45.2948 129.508 44.7841 127.494 44.7841C125.481 44.7841 123.501 45.2948 121.736 46.2688C119.973 47.2428 118.485 48.6483 117.41 50.3543C116.335 52.0604 115.707 54.0115 115.587 56.0259C115.468 58.0403 115.857 60.0525 116.722 61.8749Z" fill="#121212"/>
</svg>
